<svg width="1440" height="1584" viewBox="0 0 1440 1584" fill="none" xmlns="http://www.w3.org/2000/svg">
<rect width="1440" height="810" fill="white"/>
<path d="M317 751.52C325.528 751.509 330.186 760.935 330.197 770.028L317 751.52Z" fill="white"/>
<path d="M329.179 770.03C329.169 761.549 324.905 752.539 317.012 752.539H317V750.504H317.014C326.226 750.504 331.206 760.56 331.216 770.028L329.179 770.03Z" fill="#FF3723"/>
<path d="M330.176 729C330.186 738.093 325.548 747.521 317.018 747.535L330.176 729Z" fill="white"/>
<path d="M317.02 748.551V746.515C321.563 746.515 324.38 743.583 325.943 741.126C327.992 737.904 329.165 733.484 329.16 729H331.196C331.196 733.862 329.911 738.682 327.661 742.229C325.025 746.357 321.347 748.546 317.02 748.551Z" fill="#FF3723"/>
<path d="M348.269 750.163C339.742 750.173 335.083 740.748 335.073 731.656L348.269 750.163Z" fill="white"/>
<path d="M348.257 751.18C339.045 751.18 334.065 741.124 334.055 731.656H336.09C336.1 740.137 340.364 749.147 348.257 749.147H348.269V751.182L348.257 751.18Z" fill="#FF3723"/>
<path d="M335.716 768.555C335.706 759.083 340.67 749.016 349.889 749V751.035C341.993 751.035 337.739 760.068 337.749 768.553L335.716 768.555Z" fill="black"/>
<path d="M737.748 649.594V647.559C741.265 647.559 744.639 646.161 747.126 643.674C749.613 641.187 751.01 637.814 751.01 634.297C751.01 630.78 749.613 627.407 747.126 624.919C744.639 622.432 741.265 621.035 737.748 621.035V619C741.805 619 745.696 620.612 748.565 623.48C751.434 626.349 753.045 630.24 753.045 634.297C753.045 638.354 751.434 642.245 748.565 645.113C745.696 647.982 741.805 649.594 737.748 649.594Z" fill="#3654E5"/>
<path d="M740.577 636.584L738.542 636.513C738.616 634.764 738.342 633.018 737.738 631.376C737.133 629.733 736.209 628.227 735.02 626.943C733.83 625.659 732.398 624.623 730.806 623.895C729.215 623.168 727.494 622.762 725.745 622.702C723.996 622.643 722.252 622.93 720.614 623.547C718.977 624.165 717.477 625.1 716.203 626.3C714.928 627.499 713.904 628.939 713.189 630.537C712.473 632.134 712.081 633.858 712.035 635.607L710 635.538C710.058 633.523 710.514 631.54 711.341 629.702C712.169 627.864 713.351 626.208 714.821 624.828C716.29 623.448 718.018 622.373 719.904 621.663C721.791 620.953 723.799 620.624 725.814 620.693C727.828 620.761 729.809 621.228 731.643 622.065C733.476 622.902 735.126 624.093 736.498 625.57C737.87 627.046 738.936 628.78 739.636 630.67C740.336 632.56 740.655 634.57 740.575 636.584H740.577Z" fill="black"/>
<path d="M1295.12 482.123C1284.66 479.885 1272.92 476.248 1261.19 471.99C1218.49 456.5 1187.92 435.846 1192.46 423.307C1197 410.768 1240.96 415.166 1283.64 430.658" fill="white"/>
<path d="M1294.91 483.121C1285.14 481.026 1273.67 477.605 1260.84 472.944C1239.78 465.302 1221.2 456.221 1208.54 447.374C1195.03 437.942 1189.14 429.5 1191.51 422.951C1192.75 419.554 1196.42 417.209 1202.43 415.98C1207.89 414.865 1215.09 414.686 1223.85 415.447C1241.32 416.967 1263.24 422.163 1284 429.693L1283.31 431.607C1262.71 424.131 1240.98 418.988 1223.68 417.478C1206.43 415.976 1195.4 418.225 1193.43 423.647C1191.44 429.142 1197.22 436.98 1209.71 445.699C1222.24 454.45 1240.64 463.44 1261.55 471.025C1274.29 475.649 1285.67 479.046 1295.35 481.12L1294.91 483.121Z" fill="black"/>
<path d="M1321.3 492.899C1313.51 492.899 1304.65 491.943 1295.34 489.948L1295.77 487.958C1308.89 490.77 1321.58 491.57 1331.48 490.209C1340.7 488.945 1346.84 485.867 1348.33 481.766C1349.33 479.025 1348.57 475.952 1346.09 472.632C1343.59 469.278 1339.32 465.651 1333.41 461.845C1322.07 454.567 1304.95 446.744 1282.51 438.593L1283.2 436.68C1305.79 444.874 1323.05 452.758 1334.52 460.134C1347.34 468.374 1352.63 475.882 1350.24 482.454C1347.8 489.209 1336.6 492.899 1321.3 492.899Z" fill="#3654E5"/>
<path d="M1240.97 410.242C1232.97 410.33 1228.52 401.535 1228.42 393.008C1228.52 401.535 1224.25 410.425 1216.26 410.511C1224.25 410.423 1228.71 419.218 1228.8 427.745C1228.71 419.218 1232.97 410.328 1240.97 410.242Z" fill="white"/>
<path d="M1227.78 427.762C1227.74 423.567 1226.59 419.448 1224.64 416.46C1223.17 414.207 1220.54 411.535 1216.37 411.535H1216.27L1216.25 409.5C1220.48 409.453 1223.08 406.697 1224.51 404.391C1226.39 401.361 1227.45 397.217 1227.4 393.022L1229.44 393C1229.53 400.889 1233.55 409.229 1240.85 409.229H1240.96L1240.98 411.264C1233.62 411.344 1229.73 419.812 1229.82 427.75L1227.78 427.762ZM1220.93 410.462C1223.02 411.413 1224.85 413.055 1226.35 415.347C1227.38 416.968 1228.18 418.727 1228.73 420.571C1230.01 416.041 1232.57 412.111 1236.32 410.298C1232.53 408.566 1229.88 404.692 1228.51 400.193C1228 402.049 1227.24 403.825 1226.24 405.468C1224.79 407.788 1223 409.469 1220.93 410.466V410.462Z" fill="black"/>
<path d="M1328.38 497.195C1320.38 497.195 1316.01 488.364 1316 479.836C1316 488.364 1311.66 497.211 1303.66 497.221C1311.66 497.221 1316.03 506.05 1316.04 514.578" fill="white"/>
<path d="M1315.01 514.577C1315.01 510.383 1313.9 506.251 1311.98 503.243C1310.52 500.958 1307.89 498.237 1303.67 498.237V496.201C1307.9 496.201 1310.52 493.464 1311.98 491.174C1313.9 488.164 1314.99 484.031 1314.99 479.836H1317.02C1317.02 487.761 1321.01 496.179 1328.37 496.179H1328.38V498.214H1328.37C1322.04 498.214 1317.84 493.191 1316.01 487.02C1315.49 488.872 1314.71 490.641 1313.69 492.273C1312.23 494.579 1310.42 496.244 1308.34 497.219C1310.42 498.192 1312.23 499.851 1313.7 502.154C1315.83 505.48 1317.05 510.008 1317.06 514.582L1315.01 514.577Z" fill="#3654E5"/>
<path d="M1261.07 484.957L1260.6 482.976C1275.05 479.594 1292.83 471.278 1310.03 463.234L1311.08 462.746C1353.44 442.941 1377.33 426.232 1382.09 413.086C1383.32 409.669 1383.26 406.584 1381.88 403.657C1380.16 399.993 1375.54 398.534 1367.35 399.076C1358.69 399.639 1346.69 402.544 1336.11 405.307L1335.6 403.337C1354.63 398.369 1362.26 397.364 1367.21 397.028C1376.35 396.417 1381.6 398.249 1383.72 402.774C1385.32 406.168 1385.41 409.866 1384 413.764C1381.34 421.113 1373.14 429.474 1359.61 438.614C1347.89 446.535 1331.85 455.273 1311.94 464.582L1310.89 465.07C1293.6 473.166 1275.72 481.527 1261.07 484.957Z" fill="#3654E5"/>
<path d="M1229.16 487.156C1222.9 487.156 1218.74 485.559 1216.85 481.504C1213.62 474.595 1219.44 464.085 1233.23 451.91C1246.73 439.998 1266.34 427.748 1288.44 417.415C1304 410.139 1319.76 404.326 1334.03 400.602L1334.55 402.572C1320.4 406.264 1304.76 412.034 1289.31 419.261C1267.38 429.512 1247.95 441.648 1234.59 453.438C1221.72 464.795 1215.93 474.713 1218.7 480.646C1222.15 488.019 1236.92 485.174 1259.07 479.988L1259.53 481.97C1246.69 484.972 1236.49 487.156 1229.16 487.156Z" fill="black"/>
<path d="M1356.79 453.429C1356.79 445.711 1352.85 437.71 1345.61 437.71C1352.85 437.71 1356.79 429.708 1356.79 421.992C1356.79 429.708 1360.74 437.71 1367.97 437.71" fill="white"/>
<path d="M1357.81 453.429H1355.77C1355.77 446.305 1352.21 438.728 1345.61 438.728V436.693C1352.21 436.693 1355.77 429.118 1355.77 421.992H1357.81C1357.81 429.116 1361.37 436.693 1367.97 436.693V438.728C1362.3 438.728 1358.49 434.303 1356.79 428.81C1355.57 432.724 1353.3 436.094 1350.04 437.71C1355.11 440.226 1357.81 446.987 1357.81 453.429Z" fill="#3654E5"/>
<path d="M1371.06 443.098C1363.82 443.098 1359.87 451.1 1359.87 458.816L1371.06 443.098Z" fill="white"/>
<path d="M1360.89 458.818H1358.86C1358.86 450.705 1363.13 442.082 1371.06 442.082V444.117C1364.45 444.117 1360.89 451.692 1360.89 458.818Z" fill="#3654E5"/>
<g style="mix-blend-mode:multiply">
<g style="mix-blend-mode:multiply">
<path d="M627.968 786.836L577.479 826.098L578.499 827.409L628.987 788.147L627.968 786.836Z" fill="black"/>
</g>
</g>
<g style="mix-blend-mode:multiply">
<g style="mix-blend-mode:multiply">
<path d="M627.382 788.153L607.874 828.453L609.369 829.177L628.877 788.876L627.382 788.153Z" fill="black"/>
</g>
</g>
<path d="M567.905 805.014L544 811.738L544.45 813.337L568.355 806.613L567.905 805.014Z" fill="#A000FF"/>
<path d="M627.233 784.61L566.907 801.578L567.356 803.177L627.683 786.208L627.233 784.61Z" fill="#A000FF"/>
<g style="mix-blend-mode:multiply">
<g style="mix-blend-mode:multiply">
<path d="M566.557 769.57L566.179 771.188L629.578 785.999L629.956 784.382L566.557 769.57Z" fill="black"/>
</g>
</g>
<g style="mix-blend-mode:multiply">
<g style="mix-blend-mode:multiply">
<path d="M568.519 720L567.327 721.156L627.968 783.624L629.16 782.467L568.519 720Z" fill="black"/>
</g>
</g>
<path d="M627.73 720L626.069 720.008L626.107 728.386L627.768 728.378L627.73 720Z" fill="#A000FF"/>
<path d="M625.889 727.668L624.228 727.676L624.403 766.267L626.064 766.259L625.889 727.668Z" fill="#A000FF"/>
<path d="M629.945 766.258L628.284 766.266L628.358 782.483L630.018 782.476L629.945 766.258Z" fill="#A000FF"/>
<g style="mix-blend-mode:multiply">
<g style="mix-blend-mode:multiply">
<path d="M630.347 784.668L628.689 784.754L631.026 829.66L632.685 829.573L630.347 784.668Z" fill="black"/>
</g>
</g>
<g style="mix-blend-mode:multiply">
<g style="mix-blend-mode:multiply">
<path d="M630.418 785.001L629.095 786.004L650.639 814.429L651.963 813.426L630.418 785.001Z" fill="black"/>
</g>
</g>
<path d="M649.345 785.186L648.913 786.797L661.941 790.289L662.373 788.678L649.345 785.186Z" fill="#A000FF"/>
<path d="M631.534 784.176L631.107 785.781L646.422 789.856L646.849 788.251L631.534 784.176Z" fill="#A000FF"/>
<g style="mix-blend-mode:multiply">
<g style="mix-blend-mode:multiply">
<path d="M667.441 767.348L631.748 783.441L632.431 784.955L668.123 768.862L667.441 767.348Z" fill="black"/>
</g>
</g>
<g style="mix-blend-mode:multiply">
<g style="mix-blend-mode:multiply">
<path d="M653.816 736.175L630.843 781.125L632.322 781.881L655.294 736.931L653.816 736.175Z" fill="black"/>
</g>
</g>
<path d="M632.162 787.31C633.534 784.933 633.303 782.231 631.646 781.275C629.989 780.318 627.534 781.469 626.162 783.845C624.79 786.222 625.02 788.924 626.677 789.88C628.334 790.837 630.789 789.686 632.162 787.31Z" fill="white"/>
<path d="M1090.65 588.8C1086.71 588.816 1082.84 587.78 1079.44 585.798L1080.45 584.035C1085.02 586.681 1090.16 587.412 1095.71 586.227C1101.04 585.088 1107.25 582.753 1112.71 577.604C1128.62 562.616 1129.38 563.31 1146.78 535.474C1158.43 516.83 1164.63 499.021 1166.62 485.118C1168.81 469.771 1165.13 459.22 1155.68 453.759C1151.11 451.114 1145.98 450.383 1140.43 451.568C1135.09 452.709 1129.37 455.61 1123.42 460.191C1105.88 473.701 1105.88 473.701 1089.36 502.32C1084.61 510.547 1080.59 518.535 1077.42 526.078C1073.81 534.656 1071.32 542.608 1070 549.711L1068 549.341C1069.34 542.095 1071.88 534.003 1075.54 525.288C1078.75 517.678 1082.8 509.617 1087.59 501.313C1098.53 482.359 1110.49 467.585 1122.18 458.585C1135.04 448.675 1146.98 446.396 1156.69 451.997C1161.94 455.032 1165.6 459.572 1167.56 465.491C1169.37 470.986 1169.73 477.678 1168.63 485.414C1166.6 499.569 1159.62 517.21 1148.53 536.498C1137.76 555.247 1125.84 569.984 1113.95 579.226C1105.71 585.621 1097.8 588.8 1090.65 588.8Z" fill="#3654E5"/>
<g style="mix-blend-mode:multiply">
<g style="mix-blend-mode:multiply">
<path d="M1339.38 754.954V753.438C1354.24 753.438 1366.34 741.343 1366.34 726.478C1366.34 711.612 1354.24 699.516 1339.38 699.516C1324.51 699.516 1312.42 711.61 1312.42 726.478H1310.9C1310.9 710.775 1323.67 698 1339.38 698C1355.08 698 1367.85 710.775 1367.85 726.478C1367.85 742.18 1355.08 754.954 1339.38 754.954Z" fill="black"/>
</g>
</g>
<path d="M1338 759C1329.77 759 1322 755.762 1316.12 749.884C1310.24 744.006 1307 736.233 1307 728H1308.5C1308.5 735.823 1311.59 743.225 1317.18 748.821C1322.78 754.416 1330.17 757.496 1338 757.496L1338 759Z" fill="#FF3723"/>
<path d="M124.084 181.195C117.826 181.195 113.664 176.229 111.873 170.125C110.071 176.231 105.909 181.195 99.6611 181.195V179.16C106.939 179.16 110.855 170.834 110.855 163H112.89C112.89 170.834 116.816 179.16 124.084 179.16V181.195Z" fill="black"/>
<path d="M113.035 197.355H111C111 188.534 115.64 179.16 124.229 179.16V181.195C116.961 181.189 113.035 189.515 113.035 197.355Z" fill="#3654E5"/>
<path d="M109.229 203.679H107.194C107.194 195.846 103.268 187.52 96 187.52V185.484C104.589 185.484 109.229 194.859 109.229 203.679Z" fill="#3654E5"/>
<path d="M1227.54 293.962V291.927C1230.04 291.931 1232.44 290.941 1234.21 289.175C1235.99 287.41 1236.98 285.013 1236.99 282.512C1236.99 280.011 1236 277.611 1234.23 275.84C1232.47 274.069 1230.07 273.072 1227.57 273.068C1227.22 273.093 1221.78 273.528 1219.88 278.02L1218 277.228C1220.46 271.414 1227.21 271.047 1227.5 271.035H1227.54C1230.58 271.035 1233.5 272.243 1235.65 274.393C1237.8 276.543 1239.01 279.459 1239.01 282.5C1239.01 285.54 1237.8 288.456 1235.65 290.606C1233.5 292.756 1230.58 293.964 1227.54 293.964V293.962Z" fill="black"/>
<path d="M1192.31 274.523H1190.27C1190.28 269.66 1192.21 264.997 1195.65 261.558C1199.09 258.119 1203.75 256.185 1208.61 256.18C1213.17 256.18 1217.79 257.971 1221.31 261.093C1224.9 264.288 1226.96 268.584 1226.96 272.879H1224.92C1224.92 269.165 1223.11 265.424 1219.95 262.613C1216.8 259.802 1212.68 258.215 1208.61 258.215C1204.29 258.22 1200.15 259.94 1197.09 262.997C1194.03 266.055 1192.31 270.2 1192.31 274.523Z" fill="black"/>
<path d="M1171.27 313.624L1169.41 312.808L1178.29 292.532L1179.22 291.922H1227.54V293.957H1179.89L1171.27 313.624Z" fill="black"/>
<path d="M1212.61 285.587C1210.39 284.898 1208.42 283.547 1206.98 281.713C1205.54 279.879 1204.69 277.651 1204.55 275.323L1206.59 275.203C1206.7 277.117 1207.4 278.949 1208.59 280.457C1209.77 281.965 1211.39 283.076 1213.22 283.643L1212.61 285.587Z" fill="black"/>
<path d="M1166.98 268.346H1164.95C1164.95 266.514 1165.69 261.914 1168.52 257.687C1170.86 254.18 1175.32 250 1183.27 250C1187.58 250.001 1191.76 251.521 1195.06 254.292L1193.75 255.851C1190.82 253.388 1187.1 252.037 1183.27 252.035C1169.88 252.035 1166.98 265.11 1166.98 268.346Z" fill="#A000FF"/>
<path d="M1164.31 291.646C1161.58 291.644 1158.96 290.557 1157.02 288.625C1155.09 286.692 1154 284.073 1154 281.34C1154 275.535 1159.09 271.031 1163.45 271.031V273.066C1160.09 273.066 1156.04 276.756 1156.04 281.34C1156.04 283.533 1156.91 285.635 1158.46 287.186C1160.01 288.737 1162.12 289.609 1164.31 289.611V291.646Z" fill="#A000FF"/>
<path d="M1170.18 290.727L1166.78 307.324L1168.77 307.732L1172.17 291.135L1170.18 290.727Z" fill="#A000FF"/>
<path d="M948.351 359.145L947.807 357.185C955.403 355.08 962.233 350.834 967.482 344.955L968.5 344.654L980.996 348.077L974.217 335.662L974.184 334.749C975.752 331.36 976.848 327.772 977.44 324.086L979.451 324.407C978.856 328.107 977.779 331.713 976.248 335.133L983.931 349.199L982.771 350.668L968.565 346.777C963.115 352.707 956.112 356.992 948.351 359.145Z" fill="#FF3723"/>
<path d="M999.872 345.623H997.836C997.848 339.31 996.586 333.059 994.126 327.245L996.001 326.453C998.568 332.518 999.885 339.038 999.872 345.623Z" fill="#FF3723"/>
<path d="M930.212 361.429C906.386 361.429 887 342.043 887 318.214C887 294.386 906.386 275 930.212 275C938.711 274.989 947.023 277.488 954.107 282.183C961.19 286.879 966.73 293.561 970.03 301.393L968.155 302.187C965.01 294.724 959.731 288.356 952.981 283.882C946.231 279.407 938.311 277.026 930.212 277.035C907.507 277.035 889.035 295.509 889.035 318.214C889.035 340.919 907.507 359.393 930.212 359.393C933.934 359.397 937.639 358.898 941.227 357.91L941.77 359.87C938.006 360.908 934.118 361.432 930.212 361.429Z" fill="black"/>
<path d="M1112.63 229.373L1063 310.484L1064.74 311.547L1114.36 230.436L1112.63 229.373Z" fill="black"/>
<path d="M1107.75 229.355H1093.2V231.391H1107.75V229.355Z" fill="#3654E5"/>
<path d="M1113.1 185L1086.08 229.816L1087.83 230.867L1114.84 186.051L1113.1 185Z" fill="#3654E5"/>
<path d="M1051.62 503.001C1059.99 503.001 1067.79 505.891 1074.81 511.59C1081.43 516.983 1087.24 524.778 1092.08 534.751C1101.49 554.161 1106.67 581.039 1106.67 610.434L1104.63 610.434C1104.63 581.34 1099.52 554.776 1090.25 535.638C1085.55 525.932 1079.92 518.376 1073.52 513.18C1066.87 507.782 1059.5 505.039 1051.62 505.039C1037.17 505.039 1024.49 514.268 1014.98 531.733L1013.2 530.76C1023.09 512.608 1036.37 503.001 1051.62 503.001Z" fill="black"/>
<path d="M1008.64 529.225L1010.43 530.198C999.862 549.6 994.045 577.548 994.045 608.891L992.01 608.891C992.01 577.212 997.916 548.92 1008.64 529.225Z" fill="#3654E5"/>
<path d="M870.181 457.938C870.275 466.465 866.013 475.355 858.014 475.441C866.013 475.353 870.468 484.147 870.562 492.675C870.468 484.147 874.73 475.257 882.728 475.172" fill="white"/>
<path d="M869.544 492.69C869.497 488.493 868.351 484.374 866.399 481.386C864.928 479.133 862.303 476.461 858.132 476.461H858.022L858 474.425C862.233 474.379 864.832 471.623 866.265 469.317C868.152 466.287 869.206 462.145 869.161 457.948L871.196 457.926C871.245 462.499 870.079 467.042 867.993 470.394C866.55 472.714 864.753 474.395 862.685 475.392C864.775 476.343 866.607 477.985 868.101 480.277C869.137 481.897 869.94 483.656 870.484 485.501C872.234 479.304 876.386 474.228 882.716 474.159L882.736 476.194C875.373 476.276 871.49 484.742 871.577 492.68L869.544 492.69Z" fill="black"/>
<path d="M875.58 464.438C873.767 461.228 872.743 457.174 872.698 453.022L874.733 453C874.774 456.816 875.704 460.53 877.351 463.439L875.58 464.438Z" fill="#FF3723"/>
<path d="M889.497 468.111C885.166 468.111 881.417 465.691 878.93 461.287L880.703 460.285C883.396 465.056 886.951 466.075 889.497 466.075H889.603L889.626 468.111H889.497Z" fill="#FF3723"/>
<path d="M1046.65 667.421L1048.68 667.421C1048.68 670.446 1049.89 673.348 1052.03 675.487C1054.17 677.626 1057.07 678.828 1060.09 678.828C1063.12 678.828 1066.02 677.626 1068.16 675.487C1070.3 673.348 1071.5 670.446 1071.5 667.421L1073.54 667.421C1073.54 670.986 1072.12 674.405 1069.6 676.926C1067.08 679.447 1063.66 680.863 1060.09 680.863C1056.53 680.863 1053.11 679.447 1050.59 676.926C1048.07 674.405 1046.65 670.986 1046.65 667.421Z" fill="black"/>
<path d="M1039.03 667.441C1039.03 664.146 1040.34 660.986 1042.67 658.655C1045 656.325 1048.16 655.016 1051.45 655.016C1054.75 655.016 1057.91 656.325 1060.24 658.655C1062.57 660.986 1063.88 664.146 1063.88 667.441" fill="white"/>
<path d="M1051.45 654.001C1055.01 654.007 1058.43 655.425 1060.94 657.942C1063.46 660.46 1064.88 663.873 1064.89 667.434L1062.85 667.434C1062.85 664.408 1061.65 661.507 1059.51 659.367C1057.37 657.228 1054.47 656.026 1051.44 656.026C1048.42 656.026 1045.52 657.228 1043.38 659.367C1041.24 661.507 1040.04 664.408 1040.04 667.434L1038 667.434C1038.01 663.87 1039.43 660.454 1041.95 657.935C1044.47 655.417 1047.89 654.002 1051.45 654.001Z" fill="#FF3723"/>
<path d="M685.843 267.708C684.172 267.716 682.529 267.278 681.084 266.44C674.49 262.632 674.291 252.342 680.6 241.406L682.363 242.424C679.641 247.135 678.109 251.967 678.048 256.029C678.003 258.879 678.671 262.691 682.102 264.671C685.533 266.651 689.168 265.324 691.613 263.857C695.099 261.773 698.518 258.03 701.237 253.316L703 254.334C698.119 262.815 691.607 267.708 685.843 267.708Z" fill="black"/>
<path d="M700.391 267.642C696.538 263.322 693.929 258.535 693.048 254.159C692.089 249.413 693.217 245.32 696.223 242.637C699.599 239.627 704.347 239.178 709.596 241.372L708.811 243.25C704.333 241.374 700.336 241.695 697.578 244.156C694.446 246.952 694.47 250.921 695.042 253.758C695.856 257.784 698.299 262.233 701.911 266.287L700.391 267.642Z" fill="#A000FF"/>
<path d="M1136.33 358.059C1139.79 360.052 1143.1 362.284 1146.25 364.738L1136.33 358.059Z" fill="white"/>
<path d="M1145.62 365.529C1142.51 363.104 1139.24 360.899 1135.82 358.93L1136.84 357.168C1140.34 359.185 1143.69 361.443 1146.87 363.927L1145.62 365.529Z" fill="black"/>
<path d="M1118.32 389.199C1100.22 378.75 1088.4 363.37 1087.01 350.381C1087.01 350.381 1112.37 344.224 1136.33 358.06" fill="white"/>
<path d="M1117.81 390.081C1099.94 379.767 1087.46 364.234 1086 350.49L1086.77 349.393C1087.04 349.33 1093.35 347.825 1102.71 348.017C1111.34 348.192 1124.28 349.926 1136.84 357.175L1135.82 358.938C1123.63 351.9 1111.06 350.219 1102.66 350.048C1095.54 349.901 1090.17 350.783 1088.14 351.18C1089 357.208 1092.12 363.729 1097.19 370.107C1102.7 377.027 1110.18 383.324 1118.82 388.317L1117.81 390.081Z" fill="black"/>
<path d="M1151.67 403.183C1140.77 403.183 1128.04 399.538 1116.12 392.657L1117.14 390.895C1125.8 395.893 1135 399.225 1143.76 400.531C1152.24 401.795 1159.77 401.101 1165.54 398.525L1166.36 400.383C1162.15 402.272 1157.14 403.183 1151.67 403.183Z" fill="#3654E5"/>
<path d="M1165.06 394.672C1162.01 386.054 1155.1 377.205 1145.57 369.756L1146.83 368.152C1156.65 375.839 1163.81 385.016 1166.98 394L1165.06 394.672Z" fill="#3654E5"/>
<path d="M1128.17 389.399C1125.85 389.398 1123.58 388.782 1121.59 387.614C1119.59 386.446 1117.94 384.768 1116.81 382.752C1115.67 380.737 1115.1 378.455 1115.14 376.143C1115.18 373.831 1115.83 371.57 1117.03 369.594L1118.77 370.652C1117.54 372.665 1116.99 375.019 1117.2 377.368C1117.41 379.717 1118.38 381.935 1119.94 383.695C1121.51 385.456 1123.61 386.665 1125.92 387.143C1128.23 387.622 1130.63 387.345 1132.77 386.354L1133.62 388.204C1131.91 388.99 1130.05 389.398 1128.17 389.399Z" fill="#3654E5"/>
<path d="M1132.69 386.367L1131.8 384.535C1134.05 383.437 1135.86 381.606 1136.92 379.344C1137.99 377.082 1138.26 374.524 1137.68 372.091L1139.66 371.617C1140.34 374.5 1140.03 377.532 1138.76 380.213C1137.5 382.894 1135.36 385.063 1132.69 386.365V386.367Z" fill="#3654E5"/>
<path d="M1116.86 367.744C1117.85 366.027 1119.26 364.582 1120.94 363.539C1122.63 362.495 1124.55 361.884 1126.53 361.761C1128.5 361.638 1130.48 362.007 1132.29 362.834C1134.09 363.661 1135.66 364.921 1136.85 366.502" fill="white"/>
<path d="M1117.74 368.248L1115.98 367.23C1117.06 365.368 1118.58 363.8 1120.41 362.668C1122.24 361.535 1124.32 360.873 1126.46 360.74C1128.61 360.607 1130.76 361.007 1132.71 361.905C1134.67 362.802 1136.37 364.17 1137.67 365.885L1136.04 367.106C1134.94 365.659 1133.51 364.505 1131.86 363.748C1130.21 362.991 1128.4 362.653 1126.58 362.765C1124.77 362.878 1123.02 363.437 1121.47 364.392C1119.93 365.348 1118.65 366.67 1117.74 368.242L1117.74 368.248Z" fill="black"/>
<path d="M1127.17 379.73C1126.11 379.727 1125.08 379.446 1124.17 378.916L1125.19 377.153C1125.87 377.547 1126.65 377.729 1127.44 377.678C1128.22 377.627 1128.98 377.343 1129.6 376.864C1130.23 376.385 1130.7 375.731 1130.95 374.986C1131.2 374.24 1131.23 373.436 1131.03 372.676L1132.99 372.148C1133.23 373.041 1133.26 373.977 1133.08 374.883C1132.9 375.789 1132.51 376.642 1131.95 377.375C1131.39 378.107 1130.66 378.7 1129.83 379.108C1129.01 379.516 1128.09 379.727 1127.17 379.726V379.73Z" fill="#3654E5"/>
<path d="M1124.77 378.079C1123.62 377.415 1122.78 376.323 1122.44 375.041C1122.09 373.76 1122.27 372.395 1122.94 371.246C1123.6 370.098 1124.69 369.259 1125.98 368.916C1127.26 368.573 1128.62 368.753 1129.77 369.417" fill="white"/>
<path d="M1124.26 378.963C1122.88 378.164 1121.87 376.848 1121.46 375.305C1121.04 373.763 1121.26 372.119 1122.06 370.736C1122.86 369.353 1124.17 368.344 1125.72 367.931C1127.26 367.518 1128.9 367.735 1130.29 368.534L1129.27 370.297C1128.35 369.768 1127.27 369.625 1126.24 369.899C1125.22 370.172 1124.35 370.84 1123.83 371.755C1123.3 372.67 1123.16 373.757 1123.43 374.777C1123.7 375.798 1124.37 376.668 1125.28 377.196L1124.26 378.963Z" fill="black"/>
<path d="M1017.96 463.913L873 713.371L874.76 714.394L1019.71 464.935L1017.96 463.913Z" fill="#FF3723"/>
<path d="M1073.49 453.011L886.444 701.688L888.07 702.911L1075.12 454.235L1073.49 453.011Z" fill="#FF3723"/>
<path d="M1067.8 452.555H1034.12V454.59H1067.8V452.555Z" fill="#FF3723"/>
<path d="M1020.08 464.85H985.57L984.838 463.126L1069.49 375L1071.12 376.189L1030.09 452.032L1028.3 451.063L1065.75 381.826L987.96 462.815H1020.08V464.85Z" fill="black"/>
<rect y="810" width="1440" height="774" fill="#F2F4FC"/>
</svg>
